<svg width="80" height="80" viewBox="0 0 80 80" fill="none" xmlns="http://www.w3.org/2000/svg">
<path d="M8.00022 12C8.00022 9.79086 9.79108 8 12.0002 8H13.7642C15.5133 8 17.1124 8.98827 17.8946 10.5528C18.1416 11.0468 17.9414 11.6474 17.4474 11.8944C16.9535 12.1414 16.3528 11.9412 16.1058 11.4472C15.6623 10.5603 14.7558 10 13.7642 10H12.0002C10.8956 10 10.0002 10.8954 10.0002 12C10.0002 13.1046 10.8956 14 12.0002 14H14.0002C16.2094 14 18.0002 15.7909 18.0002 18C18.0002 20.2091 16.2094 22 14.0002 22H12.2363C10.4871 22 8.88805 21.0117 8.10579 19.4472C7.8588 18.9532 8.05903 18.3526 8.55301 18.1056C9.04698 17.8586 9.64766 18.0588 9.89465 18.5528C10.3381 19.4397 11.2446 20 12.2363 20H14.0002C15.1048 20 16.0002 19.1046 16.0002 18C16.0002 16.8954 15.1048 16 14.0002 16H12.0002C9.79108 16 8.00022 14.2091 8.00022 12Z" fill="#1387AB"/>
<path d="M20.0002 10C20.0002 8.89543 20.8957 8 22.0002 8H28.0002C28.5525 8 29.0002 8.44772 29.0002 9C29.0002 9.55228 28.5525 10 28.0002 10L22.0002 10V14H25.5002C26.0525 14 26.5002 14.4477 26.5002 15C26.5002 15.5523 26.0525 16 25.5002 16H22.0002V20H28.0002C28.5525 20 29.0002 20.4477 29.0002 21C29.0002 21.5523 28.5525 22 28.0002 22H22.0002C20.8957 22 20.0002 21.1046 20.0002 20V10Z" fill="#1387AB"/>
<path fill-rule="evenodd" clip-rule="evenodd" d="M35.0002 8C37.7617 8 40.0002 10.2386 40.0002 13V17C40.0002 19.7614 37.7617 22 35.0002 22C32.2388 22 30.0002 19.7614 30.0002 17V13C30.0002 10.2386 32.2388 8 35.0002 8ZM35.0002 10C33.3434 10 32.0002 11.3431 32.0002 13V17C32.0002 18.6569 33.3434 20 35.0002 20C36.6571 20 38.0002 18.6569 38.0002 17V13C38.0002 11.3431 36.6571 10 35.0002 10Z" fill="#1387AB"/>
<path fill-rule="evenodd" clip-rule="evenodd" d="M25.278 56C24.2962 56 23.5002 56.7959 23.5002 57.7778V65.7222C23.5002 66.7041 24.2962 67.5 25.278 67.5H26.7502C29.9259 67.5 32.5002 64.9256 32.5002 61.75C32.5002 58.5744 29.9259 56 26.7502 56H25.278ZM25.5002 65.5V58H26.7502C28.8213 58 30.5002 59.6789 30.5002 61.75C30.5002 63.8211 28.8213 65.5 26.7502 65.5H25.5002Z" fill="#1387AB"/>
<path fill-rule="evenodd" clip-rule="evenodd" d="M15.1492 57.3838C15.827 55.7268 18.1735 55.7268 18.8514 57.3838L22.4258 66.1214C22.6349 66.6325 22.3901 67.2164 21.8789 67.4255C21.3677 67.6347 20.7838 67.3898 20.5747 66.8786L19.6016 64.5H14.3989L13.4258 66.8786C13.2167 67.3898 12.6328 67.6347 12.1216 67.4255C11.6105 67.2164 11.3656 66.6325 11.5747 66.1214L15.1492 57.3838ZM17.0003 58.1411L18.7835 62.5H15.2171L17.0003 58.1411Z" fill="#1387AB"/>
<path fill-rule="evenodd" clip-rule="evenodd" d="M12 52C9.79086 52 8 53.7909 8 56V68C8 70.2091 9.79086 72 12 72H32C34.2091 72 36 70.2091 36 68V56C36 53.7909 34.2091 52 32 52H12ZM32 54H12C10.8954 54 10 54.8954 10 56V68C10 69.1046 10.8954 70 12 70H32C33.1046 70 34 69.1046 34 68V56C34 54.8954 33.1046 54 32 54Z" fill="#1387AB"/>
<path fill-rule="evenodd" clip-rule="evenodd" d="M64.151 41.4816C58.9499 40.4084 56.5558 40.1098 51.8186 42.448C51.9435 43.6915 51.6012 44.9456 50.8605 45.9524L54.6189 52.4597C55.4528 53.9073 54.9579 55.7583 53.5136 56.594C52.0692 57.4298 50.2223 56.9338 49.3884 55.4862L45.63 48.979C43.7022 49.1956 41.7395 48.2786 40.7076 46.4873L39.6751 44.7119C38.2853 42.2993 39.1101 39.2143 41.5174 37.8214L43.2609 36.8126C45.0308 35.7884 47.1635 35.9642 48.7211 37.0879C53.1102 34.1454 53.4133 30.8144 55.0865 25.7635L55.2025 25.4134L54.5594 24.297C53.5865 22.6082 54.1638 20.4487 55.8489 19.4736C57.534 18.4986 59.6888 19.0772 60.6616 20.7661L62.9394 24.7116C65.8282 23.0401 69.522 24.0321 71.1898 26.9272C72.8576 29.8223 71.8679 33.5243 68.9791 35.1958L71.2569 39.1414C72.2298 40.8302 71.6525 42.9897 69.9674 43.9648C68.2823 44.9398 66.1275 44.3612 65.1547 42.6723L64.5115 41.556L64.151 41.4816ZM69.5134 40.1502C69.9304 40.874 69.6829 41.7995 68.9608 42.2174C68.2386 42.6353 67.3151 42.3873 66.8982 41.6635L56.3029 23.2882C55.8859 22.5644 56.1334 21.6389 56.8555 21.221C57.5777 20.8031 58.5012 21.0511 58.9181 21.7749L69.5134 40.1502ZM56.5243 27.708L63.1897 39.2614C58.0804 38.491 55.8615 38.2745 51.2079 40.5024L50.097 38.5907C54.3489 35.6656 54.6354 32.5276 56.5243 27.708ZM48.3927 39.6677L49.4251 41.4431C50.259 42.8907 49.7642 44.7416 48.3198 45.5774L46.5763 46.5862C45.1319 47.422 43.285 46.926 42.4511 45.4785L41.4187 43.7031C40.5847 42.2555 41.0796 40.4045 42.524 39.5688L44.2675 38.5599C45.7119 37.7242 47.5588 38.2202 48.3927 39.6677ZM67.9725 33.4485C69.8984 32.3341 70.5582 29.8661 69.4463 27.936C68.3344 26.006 65.8719 25.3446 63.9461 26.459L67.9725 33.4485ZM51.1319 54.4774L47.5829 48.3336L49.3264 47.3248L52.8754 53.4685C53.1534 53.9511 52.9884 54.5681 52.5069 54.8466C52.0255 55.1252 51.4098 54.9599 51.1319 54.4774Z" fill="#1387AB"/>
<path d="M65 49C65 48.4477 64.5523 48 64 48C63.4477 48 63 48.4477 63 49V61C63 63.2091 61.2091 65 59 65H39C38.4477 65 38 65.4477 38 66C38 66.5523 38.4477 67 39 67H59C62.3137 67 65 64.3137 65 61V49Z" fill="#1387AB"/>
<path d="M42.5 12C42.5 11.4477 42.9477 11 43.5 11H59C62.3137 11 65 13.6863 65 17V18.5C65 19.0523 64.5523 19.5 64 19.5C63.4477 19.5 63 19.0523 63 18.5V17C63 14.7909 61.2091 13 59 13H43.5C42.9477 13 42.5 12.5523 42.5 12Z" fill="#1387AB"/>
<path d="M14.5002 25.5C14.5002 24.9477 14.0525 24.5 13.5002 24.5C12.948 24.5 12.5002 24.9477 12.5002 25.5V49C12.5002 49.5523 12.948 50 13.5002 50C14.0525 50 14.5002 49.5523 14.5002 49V25.5Z" fill="#1387AB"/>
</svg>
