<svg width="80" height="80" viewBox="0 0 80 80" fill="none" xmlns="http://www.w3.org/2000/svg">
<path d="M44.7905 13.4495C48.2731 12.7419 51.8758 12.9384 55.2634 14.0207C58.651 15.1029 61.7136 17.0359 64.1662 19.6397C66.6189 22.2436 68.382 25.4337 69.2916 28.9135C70.2012 32.3933 70.2277 36.0497 69.3687 39.5427C68.5894 42.7116 67.1042 45.6526 65.0324 48.1423C64.6796 48.5663 64.7019 49.1957 65.1044 49.5738C65.5144 49.959 66.1615 49.9362 66.5222 49.5054C68.8141 46.7674 70.4562 43.5273 71.3152 40.0344C72.256 36.2087 72.2269 32.2041 71.2307 28.3929C70.2345 24.5817 68.3035 21.0877 65.6172 18.2359C62.931 15.3841 59.5768 13.267 55.8665 12.0817C52.1563 10.8963 48.2105 10.6811 44.3962 11.4562C40.5818 12.2312 37.0228 13.9712 34.0501 16.5144C31.0774 19.0576 28.7876 22.3214 27.3936 26.0023C26.0246 29.6173 25.5633 33.5193 26.0496 37.3578L24.2693 38.0795L29.5646 43.4462V35.9328L27.9794 36.5754C27.6392 33.2404 28.0786 29.8673 29.2664 26.7308C30.5392 23.37 32.6299 20.39 35.3441 18.0679C38.0583 15.7459 41.3078 14.1572 44.7905 13.4495Z" fill="#1387AB"/>
<path fill-rule="evenodd" clip-rule="evenodd" d="M49.1232 42.3756C53.5548 42.3756 57.1473 38.7217 57.1473 34.2144C57.1473 29.7071 53.5548 26.0532 49.1232 26.0532C44.6917 26.0532 41.0992 29.7071 41.0992 34.2144C41.0992 38.7217 44.6917 42.3756 49.1232 42.3756ZM49.1232 40.3756C52.4184 40.3756 55.1473 37.6492 55.1473 34.2144C55.1473 30.7796 52.4184 28.0532 49.1232 28.0532C45.8281 28.0532 43.0992 30.7796 43.0992 34.2144C43.0992 37.6492 45.8281 40.3756 49.1232 40.3756Z" fill="#1387AB"/>
<path fill-rule="evenodd" clip-rule="evenodd" d="M51.1923 18.2766C51.6239 17.3424 52.6735 16.8833 53.637 17.2071L55.1731 17.7232C56.1228 18.0423 56.6963 19.0241 56.5176 20.025L55.8695 23.6555L56.7603 24.3248L59.8494 22.5932C60.7405 22.0937 61.8582 22.3519 62.4498 23.1939L63.4111 24.5622C63.9889 25.3846 63.8876 26.5133 63.1729 27.2157L60.5873 29.7566L60.9343 30.8608L64.4359 31.3401C65.4314 31.4764 66.1743 32.3406 66.1743 33.3622V35.0666C66.1743 36.0883 65.4314 36.9524 64.4359 37.0887L60.9343 37.568L60.5873 38.6723L63.1729 41.2132C63.8876 41.9155 63.9889 43.0442 63.4111 43.8667L62.4498 45.235C61.8582 46.077 60.7405 46.3352 59.8494 45.8356L56.7603 44.1041L55.8695 44.7734L56.5176 48.4038C56.6963 49.4047 56.1228 50.3866 55.1731 50.7057L53.637 51.2218C52.6735 51.5456 51.6239 51.0864 51.1923 50.1523L49.6671 46.8515H48.5794L47.0542 50.1523C46.6226 51.0864 45.573 51.5456 44.6094 51.2218L43.0733 50.7057C42.1237 50.3866 41.5502 49.4047 41.7289 48.4038L42.377 44.7734L41.4862 44.1041L38.397 45.8356C37.5059 46.3352 36.3882 46.077 35.7967 45.235L34.8353 43.8667C34.2575 43.0442 34.3589 41.9155 35.0736 41.2132L37.6591 38.6723L37.3122 37.568L33.8106 37.0887C32.8151 36.9524 32.0721 36.0883 32.0721 35.0666V33.3622C32.0721 32.3406 32.8151 31.4764 33.8106 31.3401L37.3122 30.8608L37.6591 29.7566L35.0736 27.2157C34.3589 26.5133 34.2575 25.3846 34.8353 24.5622L35.7967 23.1939C36.3882 22.3519 37.5059 22.0937 38.397 22.5932L41.4862 24.3248L42.377 23.6555L41.7289 20.025C41.5502 19.0241 42.1237 18.0423 43.0733 17.7232L44.6094 17.2071C45.573 16.8833 46.6226 17.3424 47.0542 18.2766L48.5794 21.5774H49.6671L51.1923 18.2766ZM54.5439 19.6605L53.0078 19.1444L51.4826 22.4452C51.1519 23.1608 50.4445 23.6177 49.6671 23.6177H48.5794C47.802 23.6177 47.0946 23.1608 46.7639 22.4452L45.2387 19.1444L43.7026 19.6605L44.3507 23.291C44.4874 24.0564 44.1841 24.8343 43.5689 25.2966L42.6781 25.9659C42.0478 26.4394 41.2042 26.4963 40.5179 26.1117L37.4288 24.3801L36.4675 25.7484L39.053 28.2893C39.6019 28.8287 39.8023 29.6382 39.57 30.3777L39.223 31.4819C38.9872 32.2325 38.3475 32.7778 37.5798 32.8829L34.0782 33.3622V35.0666L37.5798 35.546C38.3475 35.651 38.9872 36.1964 39.223 36.9469L39.57 38.0512C39.8023 38.7906 39.6019 39.6001 39.053 40.1395L36.4675 42.6804L37.4288 44.0488L40.5179 42.3172C41.2042 41.9325 42.0478 41.9895 42.6781 42.463L43.5689 43.1323C44.1841 43.5945 44.4874 44.3724 44.3507 45.1379L43.7026 48.7683L45.2387 49.2845L46.7639 45.9837C47.0946 45.2681 47.802 44.8112 48.5794 44.8112H49.6671C50.4445 44.8112 51.1519 45.2681 51.4826 45.9837L53.0078 49.2845L54.5439 48.7683L53.8957 45.1379C53.7591 44.3724 54.0623 43.5945 54.6776 43.1323L55.5684 42.463C56.1987 41.9895 57.0423 41.9325 57.7285 42.3172L60.8177 44.0488L61.779 42.6804L59.1934 40.1395C58.6446 39.6001 58.4442 38.7906 58.6765 38.0512L59.0235 36.9469C59.2593 36.1964 59.8989 35.651 60.6667 35.546L64.1683 35.0666V33.3622L60.6667 32.8829C59.8989 32.7778 59.2593 32.2325 59.0235 31.4819L58.6765 30.3777C58.4442 29.6382 58.6446 28.8287 59.1934 28.2893L61.779 25.7484L60.8177 24.3801L57.7285 26.1117C57.0423 26.4963 56.1987 26.4394 55.5684 25.9659L54.6776 25.2966C54.0623 24.8343 53.7591 24.0564 53.8957 23.291L54.5439 19.6605Z" fill="#1387AB"/>
<path fill-rule="evenodd" clip-rule="evenodd" d="M28.7227 47.7187C26.7335 46.9627 24.6101 46.6374 22.4893 46.7639L17.7209 47.0481C17.1153 45.5809 15.6855 44.5499 14.018 44.5499H9.00301C8.44906 44.5499 8 45.0051 8 45.5665C8 46.1279 8.44906 46.583 9.00301 46.583H14.018C15.1259 46.583 16.024 47.4932 16.024 48.616V62.8474C16.024 63.9702 15.1259 64.8805 14.018 64.8805H9.00301C8.44906 64.8805 8 65.3356 8 65.897C8 66.4584 8.44906 66.9135 9.00301 66.9135H14.018C15.6043 66.9135 16.9756 65.9805 17.6267 64.6263H22.7565C24.491 64.6263 26.2124 64.9303 27.8447 65.5248L34.5903 67.9817C39.1053 69.6261 44.0949 69.2668 48.335 66.9917L58.3577 61.6141C58.7988 61.3774 59.2646 61.1916 59.7465 61.0601L63.7947 59.9555C65.1987 59.5724 66.1743 58.2822 66.1743 56.8086C66.1743 54.6959 64.2211 53.1416 62.1959 53.6427L47.4989 57.2799C44.9972 57.8991 42.3708 57.7565 39.9486 56.87L37.7211 56.0548C38.2562 55.4677 38.5917 54.6803 38.5917 53.7889C38.5917 52.3937 37.7377 51.1449 36.4488 50.655L28.7227 47.7187ZM34.1612 56.9345L25.21 53.6375L25.8933 51.726L35.0692 55.0842C35.8417 55.2218 36.5857 54.6206 36.5857 53.7889C36.5857 53.2412 36.2504 52.7509 35.7444 52.5586L28.0184 49.6223C26.2915 48.966 24.4482 48.6836 22.6071 48.7934L18.0301 49.0663V62.5933H22.7565C24.7223 62.5933 26.6732 62.9378 28.5232 63.6116L35.2688 66.0684C39.2525 67.5194 43.6551 67.2023 47.3964 65.1949L57.4191 59.8173C57.9927 59.5095 58.5984 59.2679 59.225 59.0969L63.2732 57.9924C63.8013 57.8483 64.1683 57.3629 64.1683 56.8086C64.1683 56.0139 63.4336 55.4292 62.6718 55.6178L47.9748 59.255C45.0896 59.969 42.0607 59.8045 39.2672 58.7822L34.5172 57.0438C34.3984 57.0144 34.2796 56.9781 34.1612 56.9345Z" fill="#1387AB"/>
</svg>
