<svg width="80" height="80" viewBox="0 0 80 80" fill="none" xmlns="http://www.w3.org/2000/svg">
<path d="M14 13.0178C14 11.3551 15.3431 10.0071 17 10.0071H63C64.6569 10.0071 66 11.3551 66 13.0178V40.6158C66 41.1701 66.4477 41.6194 67 41.6194C67.5523 41.6194 68 41.1701 68 40.6158V13.0178C68 10.2466 65.7614 8 63 8H17C14.2386 8 12 10.2466 12 13.0178V52.1568L11 52.1568C9.34315 52.1568 8 53.5047 8 55.1675C8 56.8302 9.34315 58.1782 11 58.1782H35C35.5523 58.1782 36 57.7289 36 57.1746C36 56.6203 35.5523 56.171 35 56.171H11C10.4477 56.171 10 55.7217 10 55.1675C10 54.6132 10.4477 54.1639 11 54.1639H35C35.5523 54.1639 36 53.7146 36 53.1604C36 52.6061 35.5523 52.1568 35 52.1568L14 52.1568V13.0178Z" fill="#1387AB"/>
<path fill-rule="evenodd" clip-rule="evenodd" d="M63 55.1675C63 59.6015 59.4183 63.196 55 63.196C50.5817 63.196 47 59.6015 47 55.1675C47 50.7335 50.5817 47.139 55 47.139C59.4183 47.139 63 50.7335 63 55.1675ZM61 55.1675C61 58.5036 58.307 61.196 55 61.196C51.693 61.196 49 58.5036 49 55.1675C49 51.8313 51.693 49.139 55 49.139C58.307 49.139 61 51.8313 61 55.1675Z" fill="#1387AB"/>
<path fill-rule="evenodd" clip-rule="evenodd" d="M59.5003 38.4366C58.5396 38.1181 57.4932 38.5698 57.0628 39.4887L55.5422 42.7358H54.4578L52.9372 39.4887C52.5068 38.5698 51.4604 38.1181 50.4997 38.4366L48.9682 38.9443C48.0214 39.2583 47.4496 40.2241 47.6278 41.2087L48.274 44.7802L47.3858 45.4386L44.306 43.7352C43.4175 43.2438 42.3032 43.4978 41.7134 44.3261L40.7549 45.6722C40.1788 46.4812 40.2799 47.5916 40.9924 48.2825L43.5703 50.7821L43.2243 51.8684L39.7332 52.3399C38.7407 52.474 38 53.3241 38 54.3291V56.0058C38 57.0109 38.7407 57.861 39.7332 57.995L43.2243 58.4665L43.5703 59.5528L40.9924 62.0524C40.2799 62.7434 40.1788 63.8537 40.7549 64.6628L41.7134 66.0089C42.3032 66.8372 43.4175 67.0912 44.306 66.5998L47.3858 64.8963L48.274 65.5548L47.6278 69.1262C47.4496 70.1108 48.0214 71.0767 48.9682 71.3906L50.4997 71.8984C51.4604 72.2169 52.5068 71.7652 52.9372 70.8462L54.4578 67.5991H55.5422L57.0628 70.8462C57.4932 71.7652 58.5396 72.2169 59.5003 71.8984L61.0318 71.3906C61.9786 71.0767 62.5504 70.1108 62.3722 69.1262L61.726 65.5548L62.6142 64.8963L65.694 66.5998C66.5825 67.0912 67.6968 66.8372 68.2866 66.0089L69.2451 64.6628C69.8212 63.8537 69.7201 62.7434 69.0076 62.0524L66.4297 59.5528L66.7757 58.4665L70.2668 57.995C71.2593 57.861 72 57.0109 72 56.0058V54.3291C72 53.3241 71.2593 52.474 70.2668 52.3399L66.7757 51.8684L66.4297 50.7821L69.0076 48.2825C69.7201 47.5916 69.8212 46.4812 69.2451 45.6722L68.2866 44.3261C67.6968 43.4978 66.5825 43.2438 65.694 43.7352L62.6142 45.4386L61.726 44.7802L62.3722 41.2087C62.5504 40.2241 61.9786 39.2583 61.0318 38.9443L59.5003 38.4366ZM58.8729 40.3424L60.4044 40.8502L59.7582 44.4216C59.622 45.1746 59.9243 45.9399 60.5377 46.3946L61.4259 47.053C62.0542 47.5189 62.8953 47.5749 63.5795 47.1965L66.6594 45.493L67.6179 46.8391L65.04 49.3387C64.4928 49.8693 64.293 50.6657 64.5247 51.3931L64.8706 52.4794C65.1057 53.2177 65.7434 53.7542 66.5089 53.8576L70 54.3291V56.0058L66.5089 56.4774C65.7434 56.5807 65.1057 57.1172 64.8706 57.8556L64.5247 58.9419C64.293 59.6693 64.4928 60.4656 65.04 60.9963L67.6179 63.4958L66.6594 64.8419L63.5795 63.1385C62.8953 62.7601 62.0542 62.8161 61.4259 63.2819L60.5377 63.9403C59.9243 64.3951 59.622 65.1603 59.7582 65.9133L60.4044 69.4848L58.8729 69.9925L57.3523 66.7454C57.0226 66.0414 56.3173 65.592 55.5422 65.592H54.4578C53.6827 65.592 52.9774 66.0414 52.6477 66.7454L51.1271 69.9925L49.5956 69.4848L50.2418 65.9133C50.378 65.1603 50.0757 64.3951 49.4623 63.9403L48.5741 63.2819C47.9458 62.8161 47.1047 62.7601 46.4205 63.1385L43.3406 64.8419L42.3821 63.4958L44.96 60.9963C45.5072 60.4656 45.707 59.6693 45.4753 58.9419L45.1294 57.8556C44.8943 57.1172 44.2566 56.5807 43.4911 56.4774L40 56.0058V54.3291L43.4911 53.8576C44.2566 53.7542 44.8943 53.2177 45.1294 52.4794L45.4753 51.3931C45.707 50.6657 45.5072 49.8693 44.96 49.3387L42.3821 46.8391L43.3406 45.493L46.4205 47.1965C47.1047 47.5749 47.9458 47.5189 48.5742 47.053L49.4623 46.3946C50.0757 45.9399 50.378 45.1746 50.2418 44.4216L49.5956 40.8502L51.1271 40.3424L52.6477 43.5896C52.9774 44.2935 53.6827 44.743 54.4578 44.743H55.5422C56.3173 44.743 57.0226 44.2935 57.3523 43.5896L58.8729 40.3424Z" fill="#1387AB"/>
<path d="M30.1213 22.7598C30.5118 22.3678 30.5118 21.7324 30.1213 21.3405C29.7308 20.9486 29.0976 20.9486 28.7071 21.3405L22 28.0715L28.7071 34.8025C29.0976 35.1944 29.7308 35.1944 30.1213 34.8025C30.5118 34.4106 30.5118 33.7752 30.1213 33.3833L24.8284 28.0715L30.1213 22.7598Z" fill="#1387AB"/>
<path d="M42.2071 21.3405C42.5976 20.9486 43.2308 20.9486 43.6213 21.3405L50.3284 28.0715L43.6213 34.8025C43.2308 35.1944 42.5976 35.1944 42.2071 34.8025C41.8166 34.4106 41.8166 33.7752 42.2071 33.3833L47.5 28.0715L42.2071 22.7598C41.8166 22.3678 41.8166 21.7324 42.2071 21.3405Z" fill="#1387AB"/>
<path d="M39.8232 22.4683C40.0534 21.9644 39.8329 21.3688 39.3308 21.1378C38.8288 20.9069 38.2352 21.1281 38.0051 21.632L32.5051 33.6748C32.275 34.1786 32.4955 34.7743 32.9975 35.0052C33.4996 35.2361 34.0931 35.0149 34.3232 34.511L39.8232 22.4683Z" fill="#1387AB"/>
</svg>
