<svg width="80" height="80" viewBox="0 0 80 80" fill="none" xmlns="http://www.w3.org/2000/svg">
<path d="M17 24C17.5523 24 18 24.4477 18 25V30.5C18 31.8807 19.1193 33 20.5 33C21.8807 33 23 31.8807 23 30.5V25C23 24.4477 23.4477 24 24 24C24.5523 24 25 24.4477 25 25V30.5C25 32.9853 22.9853 35 20.5 35C18.0147 35 16 32.9853 16 30.5V25C16 24.4477 16.4477 24 17 24Z" fill="#1387AB"/>
<path d="M46 25C46 24.4477 45.5523 24 45 24C44.4477 24 44 24.4477 44 25V30.5C44 32.9853 46.0147 35 48.5 35C50.9853 35 53 32.9853 53 30.5V25C53 24.4477 52.5523 24 52 24C51.4477 24 51 24.4477 51 25V30.5C51 31.8807 49.8807 33 48.5 33C47.1193 33 46 31.8807 46 30.5V25Z" fill="#1387AB"/>
<path d="M63.6139 24.2106C64.0499 24.5497 64.1284 25.178 63.7893 25.6139L60.7668 29.5L63.7893 33.3861C64.1284 33.822 64.0499 34.4503 63.6139 34.7894C63.178 35.1284 62.5497 35.0499 62.2106 34.6139L59.5 31.1288L56.7893 34.6139C56.4503 35.0499 55.822 35.1284 55.386 34.7894C54.9501 34.4503 54.8716 33.822 55.2106 33.3861L58.2331 29.5L55.2106 25.6139C54.8716 25.178 54.9501 24.5497 55.386 24.2106C55.822 23.8716 56.4503 23.9501 56.7893 24.3861L59.5 27.8712L62.2106 24.3861C62.5497 23.9501 63.178 23.8716 63.6139 24.2106Z" fill="#1387AB"/>
<path d="M39.8944 24.4472C40.1414 23.9532 39.9412 23.3526 39.4472 23.1056C38.9532 22.8586 38.3525 23.0588 38.1055 23.5528L32.1055 35.5528C31.8586 36.0468 32.0588 36.6474 32.5528 36.8944C33.0467 37.1414 33.6474 36.9412 33.8944 36.4472L39.8944 24.4472Z" fill="#1387AB"/>
<path d="M29 25C29 24.4477 28.5523 24 28 24C27.4477 24 27 24.4477 27 25V34C27 34.5523 27.4477 35 28 35C28.5523 35 29 34.5523 29 34V25Z" fill="#1387AB"/>
<path fill-rule="evenodd" clip-rule="evenodd" d="M67 57H51.3077L52.6923 66H55C56.6569 66 58 67.3431 58 69C58 70.6569 56.6569 72 55 72H25C23.3431 72 22 70.6569 22 69C22 67.3431 23.3431 66 25 66H27.3077L28.6923 57H13C10.2386 57 8 54.7614 8 52V13C8 10.2386 10.2386 8 13 8H67C69.7614 8 72 10.2386 72 13V52C72 54.7614 69.7614 57 67 57ZM13 10H67C68.6569 10 70 11.3431 70 13V47H10V13C10 11.3431 11.3431 10 13 10ZM10 49V52C10 53.6569 11.3431 55 13 55H67C68.6569 55 70 53.6569 70 52V49H10ZM30.7158 57H49.2842L50.6688 66H29.3312L30.7158 57ZM55 68C55.5523 68 56 68.4477 56 69C56 69.5523 55.5523 70 55 70H25C24.4477 70 24 69.5523 24 69C24 68.4477 24.4477 68 25 68H55Z" fill="#1387AB"/>
</svg>
