<svg width="80" height="80" viewBox="0 0 80 80" fill="none" xmlns="http://www.w3.org/2000/svg">
<path fill-rule="evenodd" clip-rule="evenodd" d="M23.8608 8C22.7658 8 21.8782 8.9003 21.8782 10.0109V12.0217H20.8869C19.7919 12.0217 18.9043 12.922 18.9043 14.0326V39.1685C18.9043 39.7238 19.3481 40.1739 19.8956 40.1739C20.4431 40.1739 20.8869 39.7238 20.8869 39.1685V14.0326L42.6955 14.0326V39.1685C42.6955 39.7238 43.1393 40.1739 43.6868 40.1739C44.2342 40.1739 44.6781 39.7238 44.6781 39.1685V14.0326C44.6781 12.922 43.7904 12.0217 42.6955 12.0217H41.7042V10.0109C41.7042 8.9003 40.8165 8 39.7216 8H23.8608ZM39.7216 12.0217V10.0109H23.8608V12.0217H39.7216Z" fill="#1387AB"/>
<path fill-rule="evenodd" clip-rule="evenodd" d="M65.5121 61.1367C66.7009 62.2862 66.746 64.1954 65.6127 65.4012C64.4795 66.607 62.597 66.6527 61.4082 65.5033C60.2194 64.3539 60.1743 62.4446 61.3075 61.2389C62.4408 60.0331 64.3232 59.9873 65.5121 61.1367ZM64.1441 62.5923C64.5404 62.9754 64.5554 63.6118 64.1777 64.0138C63.7999 64.4157 63.1724 64.4309 62.7762 64.0478C62.3799 63.6647 62.3648 63.0282 62.7426 62.6263C63.1203 62.2244 63.7478 62.2091 64.1441 62.5923Z" fill="#1387AB"/>
<path fill-rule="evenodd" clip-rule="evenodd" d="M15.6925 16.992C16.0618 16.5821 16.064 15.9469 15.6771 15.5541C15.2901 15.1613 14.6608 15.1596 14.2899 15.5681C11.3352 18.8224 9.31491 22.8436 8.4594 27.1948C7.53918 31.8752 8.00801 36.7272 9.8066 41.1374C11.6052 45.5475 14.6528 49.3177 18.5639 51.9711C22.4751 54.6245 27.0742 56.042 31.7797 56.0443C36.4851 56.0466 41.0856 54.6337 44.9993 51.9841C45.4726 51.6636 45.9334 51.3268 46.3809 50.9745L51.4317 55.8578C50.5735 57.304 50.6866 59.1851 51.8003 60.5237L60.1604 70.5719C61.6822 72.4011 64.4327 72.4856 66.0609 70.7532L70.9048 65.5991C72.533 63.8667 72.3182 61.0842 70.444 59.63L60.1483 51.6413C58.7767 50.5771 56.9188 50.5525 55.5355 51.4912L50.5873 46.707C51.8791 45.0185 52.9509 43.1544 53.7669 41.159C55.5697 36.7506 56.0432 31.899 55.1275 27.2177C54.2761 22.8657 52.2597 18.8425 49.3081 15.5853C48.9376 15.1764 48.3083 15.1775 47.9209 15.57C47.5336 15.9624 47.5352 16.5975 47.9041 17.0078C50.5794 19.9826 52.4078 23.6472 53.1828 27.6091C54.0222 31.9003 53.5882 36.3476 51.9356 40.3886C50.2831 44.4296 47.4862 47.8828 43.8986 50.3116C40.311 52.7403 36.0939 54.0356 31.7806 54.0334C27.4673 54.0313 23.2514 52.732 19.6662 50.2997C16.081 47.8674 13.2874 44.4114 11.6386 40.3688C9.98994 36.3261 9.56018 31.8784 10.4037 27.588C11.1825 23.6269 13.0144 19.9642 15.6925 16.992ZM49.3052 48.2456C48.8581 48.7389 48.3904 49.2136 47.9033 49.6683L52.7307 54.3356L54.0987 52.8801L49.3052 48.2456ZM56.3039 53.448L53.3956 56.5425C52.6974 57.2855 52.6629 58.4425 53.3155 59.2269L61.6756 69.2751C62.4365 70.1897 63.8118 70.2319 64.6259 69.3657L69.4698 64.2117C70.2839 63.3455 70.1764 61.9542 69.2393 61.2271L58.9436 53.2384C58.1399 52.6148 57.0021 52.7051 56.3039 53.448Z" fill="#1387AB"/>
<path d="M15.8668 23.9658C16.1138 23.4702 15.954 22.8565 15.4799 22.5788C15.0057 22.3012 14.3971 22.4649 14.1474 22.959C12.7153 25.7931 11.9652 28.9363 11.9652 32.1304C11.9652 35.6603 12.8813 39.1279 14.6214 42.1848C16.3615 45.2417 18.8643 47.7802 21.8782 49.5451C24.8921 51.31 28.311 52.2391 31.7912 52.2391C35.2714 52.2391 38.6902 51.31 41.7042 49.5451C44.7181 47.7802 47.2209 45.2417 48.961 42.1848C50.7011 39.1279 51.6171 35.6603 51.6171 32.1304C51.6171 28.9363 50.867 25.7931 49.435 22.959C49.1853 22.4649 48.5766 22.3012 48.1025 22.5788C47.6283 22.8565 47.4686 23.4702 47.7156 23.9658C48.9751 26.493 49.6345 29.2893 49.6346 32.1304C49.6346 35.3073 48.8101 38.4281 47.244 41.1794C45.6779 43.9306 43.4254 46.2152 40.7129 47.8036C38.0003 49.392 34.9233 50.2283 31.7912 50.2283C28.659 50.2283 25.582 49.392 22.8695 47.8036C20.1569 46.2152 17.9044 43.9306 16.3384 41.1794C14.7723 38.4281 13.9478 35.3073 13.9478 32.1304C13.9478 29.2893 14.6072 26.493 15.8668 23.9658Z" fill="#1387AB"/>
<path d="M23.8608 36.1522C23.8608 35.5969 24.3046 35.1467 24.8521 35.1467H38.7303C39.2777 35.1467 39.7216 35.5969 39.7216 36.1522C39.7216 36.7075 39.2777 37.1576 38.7303 37.1576H24.8521C24.3046 37.1576 23.8608 36.7075 23.8608 36.1522Z" fill="#1387AB"/>
<path d="M24.8521 23.0815C24.3046 23.0815 23.8608 23.5317 23.8608 24.087C23.8608 24.6422 24.3046 25.0924 24.8521 25.0924H31.7912C32.3387 25.0924 32.7825 24.6422 32.7825 24.087C32.7825 23.5317 32.3387 23.0815 31.7912 23.0815H24.8521Z" fill="#1387AB"/>
<path d="M23.8608 30.1196C23.8608 29.5643 24.3046 29.1141 24.8521 29.1141H34.7651C35.3125 29.1141 35.7564 29.5643 35.7564 30.1196C35.7564 30.6749 35.3125 31.125 34.7651 31.125H24.8521C24.3046 31.125 23.8608 30.6749 23.8608 30.1196Z" fill="#1387AB"/>
<path d="M24.8521 17.0489C24.3046 17.0489 23.8608 17.4991 23.8608 18.0543C23.8608 18.6096 24.3046 19.0598 24.8521 19.0598H28.8173C29.3648 19.0598 29.8086 18.6096 29.8086 18.0543C29.8086 17.4991 29.3648 17.0489 28.8173 17.0489H24.8521Z" fill="#1387AB"/>
<path d="M30.7999 18.0543C30.7999 17.4991 31.2437 17.0489 31.7912 17.0489H38.7303C39.2777 17.0489 39.7216 17.4991 39.7216 18.0543C39.7216 18.6096 39.2777 19.0598 38.7303 19.0598H31.7912C31.2437 19.0598 30.7999 18.6096 30.7999 18.0543Z" fill="#1387AB"/>
<path d="M24.8521 41.1794C24.3046 41.1794 23.8608 41.6295 23.8608 42.1848C23.8608 42.7401 24.3046 43.1902 24.8521 43.1902H30.7999C31.3474 43.1902 31.7912 42.7401 31.7912 42.1848C31.7912 41.6295 31.3474 41.1794 30.7999 41.1794H24.8521Z" fill="#1387AB"/>
</svg>
